PathFileType	4	(X/Y/Z)	C:/Users/opensim2020/Desktop/walking_exp_matlab/subject06_walking16_straight_02.trc																																																																																																																																																							
DataRate	CameraRate	NumFrames	NumMarkers	Units	OrigDataRate	OrigDataStartFrame	OrigNumFrames																																																																																																																																																			
100	100	8	51	mm	100	2095	283																																																																																																																																																			
Frame#	Time	LFHD			RFHD			LBHD			RBHD			C7			T10			CLAV			STRN			RBAK			LSHO			LUPA			LELB			LFRM			LWRA			LWRB			LFIN			RSHO			RUPA			RELB			RFRM			RWRA			RWRB			RFIN			LASI			RASI			LPSI			RPSI			LTHI			LKNE			LTIB			LANK			LHEE			LTOE			RTHI			RKNE			RTIB			RANK			RHEE			RTOE			*39			*40			*41			*42			*43			*44			*45			*46			*47			*48			*49			*50		
		X1	Y1	Z1	X2	Y2	Z2	X3	Y3	Z3	X4	Y4	Z4	X5	Y5	Z5	X6	Y6	Z6	X7	Y7	Z7	X8	Y8	Z8	X9	Y9	Z9	X10	Y10	Z10	X11	Y11	Z11	X12	Y12	Z12	X13	Y13	Z13	X14	Y14	Z14	X15	Y15	Z15	X16	Y16	Z16	X17	Y17	Z17	X18	Y18	Z18	X19	Y19	Z19	X20	Y20	Z20	X21	Y21	Z21	X22	Y22	Z22	X23	Y23	Z23	X24	Y24	Z24	X25	Y25	Z25	X26	Y26	Z26	X27	Y27	Z27	X28	Y28	Z28	X29	Y29	Z29	X30	Y30	Z30	X31	Y31	Z31	X32	Y32	Z32	X33	Y33	Z33	X34	Y34	Z34	X35	Y35	Z35	X36	Y36	Z36	X37	Y37	Z37	X38	Y38	Z38	X39	Y39	Z39	X40	Y40	Z40	X41	Y41	Z41	X42	Y42	Z42	X43	Y43	Z43	X44	Y44	Z44	X45	Y45	Z45	X46	Y46	Z46	X47	Y47	Z47	X48	Y48	Z48	X49	Y49	Z49	X50	Y50	Z50	X51	Y51	Z51
																																																																																																																																																										
142	1.41	-334.74936	1679.04041	-1471.38147	-338.41107	1663.43164	-1340.23169	-466.02444	1619.80603	-1476.67029	-468.29349	1610.1001	-1348.47876	-464.92505	1463.24915	-1417.19531	-493.67685	1134.63135	-1402.073	-354.72314	1386.43604	-1421.86511	-316.15036	1209.58398	-1431.1001	-529.81635	1292.12976	-1332.1062	-419.87137	1417.39624	-1580.71045	-432.66229	1214.25024	-1650.06702	-440.55682	1102.09399	-1658.87195	-415.52588	953.66974	-1678.85181	-353.34387	840.4953	-1635.3717	-415.65234	833.9801	-1671.21802	-372.41714	753.32092	-1670.98352	-388.7536	1417.49182	-1258.31348	-425.07562	1219.90967	-1166.64978	-419.00742	1098.32263	-1153.90283	-409.17203	978.64093	-1134.77051	-360.4971	835.54626	-1164.19458	-412.62314	840.62402	-1121.98669	-380.02533	762.34918	-1120.59363	-332.42609	972.25586	-1530.89563	-309.45126	974.82288	-1311.2229	-485.66742	1003.45502	-1487.0592	-461.12885	1007.06775	-1319.8678	-362.3988	659.15283	-1580.19287	-328.1268	500.89484	-1557.21631	-498.37305	325.43765	-1558.91357	-611.91797	193.43182	-1530.71436	-650.81323	202.32692	-1482.7002	-523.58929	77.6694	-1539.38635	-363.63098	640.47699	-1259.80237	-364.33237	516.45282	-1288.28882	-428.68732	256.90485	-1282.97546	-467.90842	72.6798	-1323.84094	-517.48206	49.33355	-1359.20959	-319.2706	38.86441	-1352.4248	-437.93259	1711.60022	-1413.46387	NaN	NaN	NaN	NaN	NaN	NaN	NaN	NaN	NaN	NaN	NaN	NaN	NaN	NaN	NaN	NaN	NaN	NaN	NaN	NaN	NaN	NaN	NaN	NaN	NaN	NaN	NaN	NaN	NaN	NaN	NaN	NaN	NaN
143	1.42	-327.41937	1678.7832	-1471.3739	-331.05341	1663.28223	-1340.13916	-458.76218	1619.51196	-1476.21814	-460.97934	1609.9303	-1348.08923	-457.76404	1463.03333	-1416.52124	-486.70706	1134.40747	-1401.11523	-347.62982	1386.15247	-1421.49792	-309.20935	1209.30078	-1430.599	-522.53595	1291.9491	-1331.03186	-413.30392	1417.12756	-1580.14539	-427.94376	1214.2052	-1649.5155	-436.97888	1102.11633	-1658.33618	-413.50388	953.44666	-1678.28882	-352.31168	839.65692	-1634.66272	-414.8219	833.78571	-1670.57996	-372.259	752.70679	-1670.271	-381.33789	1417.41858	-1257.82764	-417.6868	1219.81592	-1166.21143	-411.14542	1098.25403	-1153.26892	-400.62305	978.60516	-1134.27124	-350.80173	835.97498	-1163.95032	-403.19965	840.617	-1121.74792	-370.09998	762.55603	-1120.50342	-325.25406	972.49707	-1530.17834	-302.70206	974.16107	-1310.54163	-478.67841	1003.36353	-1486.45703	-454.32153	1006.58368	-1319.1958	-352.08392	660.36853	-1580.24536	-316.00229	502.32611	-1556.93396	-481.86139	322.11261	-1557.8866	-590.69849	186.22032	-1528.96423	-629.94116	193.42039	-1480.4519	-498.33014	74.97547	-1539.63611	-358.57211	639.66632	-1259.68567	-359.50897	515.72009	-1288.09644	-426.23749	256.54941	-1282.90833	-467.46524	72.64105	-1323.76733	-516.26709	48.91542	-1360.15051	-318.68637	38.14781	-1352.18677	-430.72852	1711.37158	-1413.2843	NaN	NaN	NaN	NaN	NaN	NaN	NaN	NaN	NaN	NaN	NaN	NaN	NaN	NaN	NaN	NaN	NaN	NaN	NaN	NaN	NaN	NaN	NaN	NaN	NaN	NaN	NaN	NaN	NaN	NaN	NaN	NaN	NaN
144	1.43	-320.41833	1678.3374	-1471.30884	-323.55789	1663.07458	-1340.07983	-451.79105	1619.20972	-1476.08679	-453.5864	1609.81335	-1347.77966	-450.50919	1462.72424	-1415.9397	-479.677	1134.11267	-1400.1178	-340.53351	1385.82544	-1421.13855	-302.27145	1209.00342	-1430.13147	-515.34808	1291.75073	-1330.08301	-406.76895	1416.73779	-1579.63892	-423.22943	1213.96655	-1648.93164	-433.43832	1101.97607	-1657.63135	-411.59491	953.11804	-1677.92859	-351.26215	838.83148	-1633.97046	-413.82352	833.46875	-1669.74341	-372.01682	752.0459	-1669.54626	-373.89587	1417.24512	-1257.37524	-409.72821	1219.80469	-1165.42126	-403.27621	1098.10486	-1152.64478	-392.02426	978.52985	-1133.86584	-341.59244	836.21411	-1164.0719	-393.69141	840.50098	-1121.68359	-360.04379	762.83936	-1120.58398	-318.09528	972.59772	-1529.52759	-296.03177	973.47607	-1309.92065	-471.73227	1003.23907	-1485.99915	-447.58963	1006.04962	-1318.67944	-342.59698	660.7489	-1580.56396	-304.17438	503.72006	-1556.70154	-465.10983	318.36685	-1557.06067	-569.23242	178.7876	-1527.65198	-608.17035	183.99661	-1478.67395	-472.14542	71.84541	-1539.71753	-353.41855	638.79785	-1259.65564	-355.35861	514.72498	-1288.63074	-423.89517	256.16409	-1282.802	-466.83423	72.72292	-1323.73047	-516.03687	49.34007	-1359.86633	-318.31888	37.5695	-1352.0387	-423.4642	1711.10046	-1413.15906	NaN	NaN	NaN	NaN	NaN	NaN	NaN	NaN	NaN	NaN	NaN	NaN	NaN	NaN	NaN	NaN	NaN	NaN	NaN	NaN	NaN	NaN	NaN	NaN	NaN	NaN	NaN	NaN	NaN	NaN	NaN	NaN	NaN
145	1.44	-313.22928	1677.86646	-1471.32593	-316.19904	1662.76099	-1340.01672	-444.64471	1618.81458	-1475.82605	-446.21722	1609.52197	-1347.41382	-443.35248	1462.41138	-1415.44775	-472.69925	1133.74548	-1399.23535	-333.34467	1385.43579	-1420.79688	-295.12442	1208.56506	-1429.72327	-508.07443	1291.42334	-1329.08557	-400.14203	1416.27087	-1579.18921	-418.34769	1213.73181	-1648.44995	-429.67444	1101.86548	-1657.16724	-409.06577	952.71521	-1676.79126	-350.06137	837.90259	-1633.2345	-412.80139	833.08264	-1668.94543	-371.61917	751.28381	-1668.7439	-366.42984	1417.03064	-1256.93738	-402.32437	1219.57568	-1164.92151	-395.43674	1097.90417	-1152.005	-383.43497	978.37378	-1133.50964	-331.7005	836.66296	-1164.13782	-384.05432	840.3678	-1121.7583	-349.73685	762.89056	-1120.84985	-310.91833	972.66522	-1528.6969	-289.29294	972.73517	-1309.24023	-464.74432	1003.03546	-1485.61133	-440.91046	1005.46051	-1318.22754	-330.97797	662.80957	-1581.01965	-292.58652	504.98648	-1556.58374	-447.98242	314.12894	-1556.33826	-546.75519	170.73293	-1526.38098	-585.29742	174.04066	-1476.90088	-445.08075	68.74784	-1539.74841	-348.12473	637.99066	-1259.53198	-350.40073	513.82886	-1288.14929	-421.66943	255.81584	-1282.54639	-466.62762	72.77688	-1323.51526	-515.92352	49.70962	-1359.78809	-318.14795	37.06789	-1351.89539	-416.13794	1710.78174	-1413.03625	NaN	NaN	NaN	NaN	NaN	NaN	NaN	NaN	NaN	NaN	NaN	NaN	NaN	NaN	NaN	NaN	NaN	NaN	NaN	NaN	NaN	NaN	NaN	NaN	NaN	NaN	NaN	NaN	NaN	NaN	NaN	NaN	NaN
146	1.45	-306.02255	1677.31482	-1471.34534	-308.75412	1662.35596	-1340.02637	-437.52322	1618.32666	-1475.59631	-438.82623	1609.25562	-1347.14771	-436.13443	1461.99121	-1414.88733	-465.6792	1133.33276	-1398.3894	-326.17432	1385.03857	-1420.51257	-288.08994	1208.1615	-1429.30737	-500.83975	1291.10913	-1328.17932	-393.53766	1415.71094	-1578.71228	-413.37131	1213.37366	-1647.92126	-425.75903	1101.60339	-1656.5658	-406.68781	952.26123	-1676.26147	-348.76086	836.92426	-1632.48779	-411.65909	832.68726	-1668.26233	-371.1456	750.50165	-1667.97974	-358.89993	1416.75281	-1256.56848	-394.60748	1219.26819	-1164.32983	-387.63437	1097.63147	-1151.39697	-374.81128	978.1496	-1133.14758	-322.37143	836.89185	-1164.55225	-374.22839	840.08728	-1121.90015	-339.37561	762.89166	-1121.32788	-303.68512	972.49365	-1528.12207	-282.70569	972.10437	-1308.59155	-457.8656	1002.77698	-1485.37268	-434.2652	1004.85663	-1317.89124	-320.94846	663.68799	-1581.36292	-281.29218	506.26151	-1556.62109	-430.64255	309.60977	-1555.91138	-523.55115	162.46805	-1525.41577	-562.07904	164.03107	-1475.61768	-417.50632	65.63316	-1539.8103	-342.98022	637.12103	-1259.58362	-346.13705	512.94299	-1288.27966	-419.86063	255.44182	-1282.18152	-466.38522	72.91341	-1323.40552	-515.65289	50.04387	-1359.71423	-318.19626	36.74396	-1352.01453	-408.85834	1710.34167	-1412.87781	NaN	NaN	NaN	NaN	NaN	NaN	NaN	NaN	NaN	NaN	NaN	NaN	NaN	NaN	NaN	NaN	NaN	NaN	NaN	NaN	NaN	NaN	NaN	NaN	NaN	NaN	NaN	NaN	NaN	NaN	NaN	NaN	NaN
147	1.46	-298.82574	1676.71387	-1471.42126	-301.28333	1661.90491	-1340.02026	-430.34622	1617.79785	-1475.33411	-431.41779	1608.83472	-1346.83838	-428.93375	1461.54419	-1414.41638	-458.73065	1132.80872	-1397.67603	-319.15363	1384.427	-1420.22095	-281.17023	1207.60986	-1428.91821	-493.57104	1290.73315	-1327.24817	-386.80466	1415.09644	-1578.3562	-408.2757	1212.93933	-1647.46606	-421.73758	1101.31433	-1656.0282	-404.15881	951.70099	-1675.28809	-347.53333	835.84882	-1631.81287	-410.26807	832.16101	-1667.24072	-370.62213	749.68921	-1667.17297	-351.38104	1416.30969	-1256.20276	-386.5625	1219.03845	-1163.49353	-379.87613	1097.28076	-1150.76709	-366.13776	977.8714	-1132.95276	-312.62012	837.1825	-1165.0498	-364.58765	839.83179	-1121.97717	-328.8353	763.07898	-1122.00049	-296.50412	972.52594	-1527.22571	-276.11563	971.29529	-1308.01001	-450.83728	1002.45374	-1485.17554	-427.64215	1004.19464	-1317.67468	-311.22632	664.18311	-1582.09778	-270.30835	507.38669	-1556.68066	-413.03259	305.0145	-1555.62793	-499.59705	154.02655	-1524.47815	-538.1131	153.95445	-1474.61487	-389.63965	62.54697	-1540.07813	-337.9693	636.18988	-1259.61108	-341.71951	511.95416	-1287.87036	-418.20334	255.056	-1281.67798	-466.03632	72.9493	-1323.4646	-515.46326	50.27291	-1359.81152	-317.96143	36.52628	-1351.84119	-401.49185	1709.85449	-1412.81934	NaN	NaN	NaN	NaN	NaN	NaN	NaN	NaN	NaN	NaN	NaN	NaN	NaN	NaN	NaN	NaN	NaN	NaN	NaN	NaN	NaN	NaN	NaN	NaN	NaN	NaN	NaN	NaN	NaN	NaN	NaN	NaN	NaN
148	1.47	-291.64664	1676.05591	-1471.44873	-293.78848	1661.40588	-1340.08325	-423.20953	1617.21887	-1475.08569	-423.90439	1608.27808	-1346.36438	-421.61569	1460.98584	-1413.94446	-451.81119	1132.26575	-1397.04468	-311.95102	1383.82947	-1419.99268	-274.07153	1207.01526	-1428.58301	-486.36685	1290.37329	-1326.44763	-380.01285	1414.42419	-1578.01904	-403.03204	1212.42236	-1646.99792	-417.50391	1100.9397	-1655.4519	-401.38058	951.30304	-1674.94263	-345.85898	834.82562	-1630.99878	-408.22522	830.85638	-1665.58667	-369.96649	748.79315	-1666.32422	-343.80219	1415.86462	-1255.89893	-378.78421	1218.67432	-1162.90405	-372.12534	1096.86365	-1150.16309	-357.44083	977.54846	-1132.75	-302.93076	837.48279	-1165.70801	-354.70654	839.40991	-1122.30505	-318.11917	762.98285	-1122.76514	-289.33221	972.38794	-1526.59595	-269.51529	970.40564	-1307.47888	-443.90707	1002.05505	-1485.05945	-421.00659	1003.46356	-1317.48865	-301.6608	664.84332	-1582.66394	-259.5676	508.41861	-1556.849	-395.20645	300.33862	-1555.53943	-475.27396	145.81151	-1523.91785	-513.4823	143.95436	-1473.88452	-361.06769	59.52876	-1540.11975	-332.95166	635.33801	-1259.70703	-337.63797	510.98563	-1287.60095	-416.60641	254.8427	-1281.2019	-465.78635	73.12976	-1323.35522	-515.35626	50.68151	-1359.67676	-317.91766	36.34577	-1351.9397	-394.1608	1709.29712	-1412.71838	NaN	NaN	NaN	NaN	NaN	NaN	NaN	NaN	NaN	NaN	NaN	NaN	NaN	NaN	NaN	NaN	NaN	NaN	NaN	NaN	NaN	NaN	NaN	NaN	NaN	NaN	NaN	NaN	NaN	NaN	NaN	NaN	NaN
149	1.48	-284.36102	1675.31372	-1471.54956	-286.31653	1660.84998	-1340.09558	-416.04337	1616.57605	-1474.89282	-416.45297	1607.85828	-1346.32532	-414.38187	1460.49438	-1413.51025	-444.92136	1131.7063	-1396.53931	-304.76224	1383.16382	-1419.77026	-267.2392	1206.27893	-1428.24463	-479.23758	1289.99365	-1325.6969	-373.16714	1413.64478	-1577.66199	-397.68204	1211.84863	-1646.55994	-413.15344	1100.47876	-1654.79443	-398.56451	950.5929	-1674.1377	-344.10202	833.83801	-1630.34583	-407.14175	831.01752	-1665.57263	-369.21252	747.92761	-1665.47058	-336.15451	1415.27283	-1255.59375	-371.21396	1218.1615	-1162.41052	-364.36264	1096.41687	-1149.61023	-348.70743	977.1073	-1132.60669	-292.44971	838.09094	-1166.45203	-344.3573	839.20123	-1122.75012	-307.16171	762.98596	-1123.72534	-282.12585	972.21155	-1526.02002	-262.84802	969.5304	-1307.06421	-436.92511	1001.59515	-1485.01514	-414.39645	1002.69379	-1317.46301	-292.31418	665.32886	-1583.28345	-249.05946	509.13055	-1556.91626	-377.1785	295.62488	-1555.57861	-450.65903	137.83736	-1523.7085	-488.38892	134.12469	-1473.3938	-332.49146	56.89144	-1540.47949	-328.20581	634.51178	-1259.71326	-333.57211	510.15475	-1287.40161	-414.89862	254.58949	-1280.89343	-465.68082	73.31304	-1323.15942	-515.28705	51.12078	-1359.68494	-318.04529	36.1997	-1351.6377	-386.78638	1708.70288	-1412.66968	NaN	NaN	NaN	NaN	NaN	NaN	NaN	NaN	NaN	NaN	NaN	NaN	NaN	NaN	NaN	NaN	NaN	NaN	NaN	NaN	NaN	NaN	NaN	NaN	NaN	NaN	NaN	NaN	NaN	NaN	NaN	NaN	NaN
